<svg width="16" height="16" viewBox="0 0 16 16" fill="none" xmlns="http://www.w3.org/2000/svg">
<path d="m 14.0432,1.5625 h -2.472 L 10.1512,0 H 5.47 L 4.05,1.5625 H 1.5776 C 0.7364,1.5625 0,2.239584 0,3.124992 v 9.270839 c 0,0.83332 0.6836,1.56248 1.5776,1.56248 h 12.4656 c 0.8416,0 1.578,-0.67708 1.578,-1.56248 V 3.072912 c 0,-0.833328 -0.684,-1.510412 -1.578,-1.510412 z m 0,10.781251 H 1.6304 V 3.072912 H 4.786 L 6.2064,1.510416 H 9.5199996 L 10.8876,3.072912 h 3.1556 z M 7.8368,3.854152 c -2.1564,0 -3.892,1.71876 -3.892,3.8541998 0,2.1353995 1.7356,3.8541592 3.892,3.8541592 2.1563996,0 3.892,-1.7187597 3.892,-3.8541592 0,-2.1354398 -1.7356004,-3.8541998 -3.892,-3.8541998 z m 0,6.197919 c -1.2624,0 -2.3144,-1.0416397 -2.3144,-2.2916392 0,-1.2499998 1.052,-2.2916798 2.3144,-2.2916798 1.2623996,0 2.3144,1.04168 2.3144,2.2916798 0,1.2499995 -1.0520004,2.2916392 -2.3144,2.2916392 z" fill="#911c1c"/>
</svg>
